<svg width="96" height="94" viewBox="0 0 96 94" fill="none" xmlns="http://www.w3.org/2000/svg">
<path d="M35.6283 53.3114C35.6283 61.247 29.0211 67.68 20.8707 67.68C12.7204 67.68 6.11322 61.247 6.11322 53.3114C6.11322 45.3759 12.7204 38.9429 20.8707 38.9429C29.0211 38.9429 35.6283 45.3759 35.6283 53.3114Z" fill="#25D800"/>
<path d="M63.7763 29.1276C58.1029 26.7208 59.6849 22.1078 61.1851 20.1021C77.2778 16.6834 72.1677 0.0681198 71.959 0C79.3234 0 89.1427 6.83746 92.9613 12.8544C97.1083 19.3889 96.9163 30.3583 92.9613 33.6403C83.5512 37.4693 83.1421 29.1276 83.5512 29.1276C83.9603 29.1276 87.9153 16.9569 81.3691 13.5382C80.1417 21.3329 71.2771 29.1276 63.7763 29.1276Z" fill="#25D800"/>
<path d="M31.6943 28.6733C37.2075 26.2174 35.5628 21.7661 34.0513 19.8474C18.2047 16.855 22.8768 0.600197 23.08 0.529699C15.86 0.680974 6.37229 7.52861 2.75088 13.4555C-1.18199 19.8921 -0.770738 30.5503 3.17339 33.6591C12.4768 37.1875 12.7084 29.0711 12.3072 29.0795C11.9061 29.0879 7.78132 17.3394 14.1296 13.8819C15.4914 21.4331 24.3406 28.8274 31.6943 28.6733Z" fill="#25D800"/>
<path d="M89.292 53.3114C89.292 61.247 82.6849 67.68 74.5345 67.68C66.3841 67.68 59.777 61.247 59.777 53.3114C59.777 45.3759 66.3841 38.9429 74.5345 38.9429C82.6849 38.9429 89.292 45.3759 89.292 53.3114Z" fill="#25D800"/>
<path d="M38.0358 72.4787C38.0358 67.6695 41.6671 67.3781 43.4828 67.8335C45.2258 69.5823 47.1141 74.2092 47.568 76.3041C48.6574 72.8066 50.2915 67.8335 53.2873 67.8335C56.2831 67.8335 57.3725 70.0194 57.3725 72.4787C49.4744 77.1239 55.1937 84.6381 55.4661 85.048C61.1309 90.2943 67.1771 86.6875 70.1729 83.4085C72.7874 82.3155 74.3489 85.4123 74.8028 86.9607C70.5814 91.6059 63.3642 95.568 57.3725 93.382C51.4028 91.204 49.4744 86.9607 47.4318 82.0423C45.9339 86.9607 43.4828 92.5319 38.0358 93.382C28.2313 94.9122 22.6935 90.1486 21.1502 86.9607C20.9323 82.8074 23.9645 82.9076 25.5078 83.5452C27.9135 86.8697 34.3863 90.7042 39.3975 85.4579C44.4087 80.2115 40.5777 74.4825 38.0358 72.4787Z" fill="#25D800"/>
<path d="M60.0244 51.8169C49.0829 39.9491 38.6885 46.872 34.859 51.8169C33.1266 53.0989 30.3183 54.619 32.9442 50.4433C45.6363 35.9382 57.0155 44.3995 61.1186 50.4433L60.0244 51.8169Z" fill="#25D800"/>
<path d="M13 48.9054V47.527L21 45V62H18.7143V47.527L13 48.9054Z" fill="black"/>
<path d="M79 50.8602C79 49.5082 77.8889 46.8449 73.4444 47.0071C69 47.1693 69 50.8602 69 54.1049V56.5385M79 50.8602V56.5385C78.6296 57.9581 79 61 73.4444 61C69.882 61 69 58.0933 69 56.5385M79 50.8602L69 56.5385" stroke="black" stroke-width="2" stroke-linecap="round" stroke-linejoin="round"/>
</svg>
