<svg width="1080" height="988" viewBox="0 0 1080 988" fill="none" xmlns="http://www.w3.org/2000/svg">
<g clip-path="url(#clip0)">
<rect width="1080" height="988" fill="white"/>
<path d="M239 339.224L281 293.224C314.6 234.024 372.333 256.558 397 275.224L427 327.224L367 275.224V339.224L331 293.224L317 367.224L307 293.224L239 339.224Z" fill="#38363D" fill-opacity="0.17"/>
<path d="M489 240.463L503 216.463V198.463C573 144.463 607.667 173.797 621 198.463L639 234.463L597 198.463L605 234.463L585 216.463L597 272.463L563 198.463L547 240.463L537 198.463L489 240.463Z" fill="#38363D" fill-opacity="0.17"/>
<path d="M693 335.699L709 299.699C776.2 226.099 821 259.699 835 285.699H823L855 335.699L793 285.699L811 349.699L769 285.699L751 349.699V285.699L693 335.699Z" fill="#38363D" fill-opacity="0.17"/>
<path d="M881 681.957C886.5 674.791 902.9 664.757 924.5 681.957C946.1 699.157 963.833 689.124 970 681.957" stroke="#F7631B" stroke-opacity="0.86" stroke-width="3"/>
<path d="M153.5 520.969C170.5 512.469 170 498.834 212 532.834C254 566.834 285.167 547.001 295.5 532.834C313.5 516.334 355.4 493.234 379 532.834C408.5 582.334 459.5 543.457 468 532.834C482.167 518.96 518.7 499.536 551.5 532.834C592.5 574.457 633.5 544.699 640.5 532.834C650.333 522.627 674.8 508.336 694 532.834C718 563.457 770.5 544.699 780.5 532.834C790.5 520.969 838 498.211 868 532.834C898 567.457 947 544.699 950 532.834C955.667 529.793 969 525.536 977 532.834" stroke="black" stroke-width="4"/>
<path d="M154.5 457.976C171.5 447.476 210 432.776 228 457.976C246 483.176 278.833 468.476 293 457.976C303.333 446.642 330.8 430.776 358 457.976C385.2 485.176 411.667 469.309 421.5 457.976C434.667 447.142 464.4 431.976 478 457.976C500.8 471.576 527.167 463.642 537.5 457.976C553 447.142 588 431.976 604 457.976C624 490.476 650.5 473.976 660.5 457.976" stroke="black" stroke-width="4"/>
<path d="M471.5 609.976C488.5 599.476 527 584.776 545 609.976C563 635.176 595.833 620.476 610 609.976C620.333 598.642 647.8 582.776 675 609.976C702.2 637.176 728.667 621.309 738.5 609.976C751.667 599.142 781.4 583.976 795 609.976C817.8 623.576 844.167 615.642 854.5 609.976C870 599.142 905 583.976 921 609.976C941 642.476 967.5 625.976 977.5 609.976" stroke="black" stroke-width="4"/>
<path d="M169.5 609.75C195.998 635.884 221.782 620.639 231.361 609.75C244.188 599.342 273.154 584.77 286.403 609.75C308.615 622.817 334.301 615.195 344.368 609.75C359.468 599.342 393.565 584.77 409.152 609.75C428.635 640.976 452.016 619.132 471.5 609.75" stroke="black" stroke-width="4"/>
<path d="M660.5 457.976C677.5 447.476 716 432.776 734 457.976C752 483.176 784.833 468.476 799 457.976C809.333 446.642 836.8 430.776 864 457.976C891.2 485.176 917.667 469.309 927.5 457.976C940.667 447.142 961.5 444.457 982.5 457.976" stroke="black" stroke-width="4"/>
<ellipse cx="263" cy="801.457" rx="8.5" ry="7.5" fill="#F7631B"/>
<ellipse cx="912" cy="746.457" rx="8.5" ry="7.5" fill="#F7631B"/>
<ellipse cx="895" cy="951.457" rx="8.5" ry="7.5" fill="#F7631B"/>
<path d="M173.5 738.457C186.333 732.291 213.7 723.657 220.5 738.457C227.3 753.257 246 744.624 254.5 738.457" stroke="#F7631B" stroke-opacity="0.86" stroke-width="4"/>
<path d="M895 857.457C902.833 851.791 922.8 843.857 940 857.457C957.2 871.057 975.5 863.124 982.5 857.457" stroke="#F7631B" stroke-opacity="0.86" stroke-width="4"/>
<path d="M168 369.457C213.833 334.124 311.7 262.057 336.5 256.457C361.3 250.857 467.5 306.791 517.5 335.457C546.167 345.791 615.1 360.257 661.5 335.457C689.333 312.457 750.4 264.457 772 256.457C779.167 252.124 806.2 253.957 857 295.957C907.8 337.957 956.167 388.124 974 407.957" stroke="black" stroke-width="4"/>
<path d="M425.5 266.457L506 192.957C526.667 174.124 579.9 147.757 627.5 192.957C675.1 238.157 697.333 260.791 702.5 266.457" stroke="black" stroke-width="3"/>
<path d="M140 518.457C154.5 516.291 188.1 516.157 206.5 532.957C229.5 553.957 272 547.457 284.5 532.957C297 518.457 318.5 503.957 335.5 518.457C352.5 532.957 393.5 555.957 431.5 532.957C469.5 509.957 512 508.957 529 532.957C546 556.957 618 547.457 629.5 532.957C641 518.457 672 511.957 687.5 532.957C703 553.957 752 547.457 765 532.957C778 518.457 822 510.457 861.5 532.957C901 555.457 951.5 532.957 956 532.957" stroke="#38363D" stroke-opacity="0.17" stroke-width="9"/>
<path d="M112 442.457C126.5 440.291 160.1 440.157 178.5 456.957C201.5 477.957 244 471.457 256.5 456.957C269 442.457 290.5 427.957 307.5 442.457C324.5 456.957 365.5 479.957 403.5 456.957C441.5 433.957 484 432.957 501 456.957C518 480.957 590 471.457 601.5 456.957C613 442.457 644 435.957 659.5 456.957C675 477.957 724 471.457 737 456.957C750 442.457 794 434.457 833.5 456.957C873 479.457 923.5 456.957 928 456.957" stroke="#38363D" stroke-opacity="0.17" stroke-width="9"/>
<path d="M206 585.457C220.5 583.291 254.1 583.157 272.5 599.957C295.5 620.957 338 614.457 350.5 599.957C363 585.457 384.5 570.957 401.5 585.457C418.5 599.957 459.5 622.957 497.5 599.957C535.5 576.957 578 575.957 595 599.957C612 623.957 684 614.457 695.5 599.957C707 585.457 738 578.957 753.5 599.957C769 620.957 818 614.457 831 599.957C844 585.457 888 577.457 927.5 599.957C967 622.457 1017.5 599.957 1022 599.957" stroke="#38363D" stroke-opacity="0.17" stroke-width="9"/>
<path d="M509 731.5C504.6 753.9 475.167 772.833 461 779.5C547 842.7 604 804 620.5 772.5C590.5 764 591.298 750.667 592.131 738.5C604.531 728.1 623.333 684.833 629 668C651.4 655.6 638.333 641.167 629 635.5C629 624.3 621.667 603.5 618 594.5C592 517.7 502.5 547.5 461 572C407.8 656.8 470.833 713.667 509 731.5Z" fill="white" stroke="#110B0B" stroke-width="3"/>
<path d="M630.5 494C638.5 514.4 693.167 528.833 719.5 533.5C729.5 526.7 741 513.833 742 503.5C720.333 484.167 664.9 439.1 644.5 451.5C619 467 620.5 468.5 630.5 494Z" fill="#FFFCFC" stroke="black" stroke-width="3"/>
<path d="M432.5 512.5C428.9 502.5 412 515.833 405.5 512.5C405.5 470.5 514.5 427.5 506 439C499.2 448.2 503.167 476.833 506 490C483 501.667 436.1 522.5 432.5 512.5Z" fill="#FFFCFC" stroke="black" stroke-width="3"/>
<path d="M342 859C346.4 896.6 330.5 982 322 1020H782C858 681.6 804.5 527.333 736.5 492.5C736.5 506.9 724.167 526.833 718 535C820 644 692.007 771 673 771C650.5 771 644.5 772.5 618 771C554 835 491.833 786 469.5 771C349.5 760.6 393.833 599.167 434 515.5C431.6 501.1 412.333 494.167 403 492.5C247.5 626.5 336.5 812 342 859Z" fill="#F7631B"/>
<path d="M545.5 738.5C523 738.5 511.667 745.5 500.5 738.5V727.5C484.5 728.833 452.5 725.3 452.5 700.5C440.5 691.5 419.1 670.1 429.5 656.5C442.5 639.5 416.5 621.5 446.5 611.5C440 595.833 435.2 563.1 468 557.5C472.333 544.5 488.3 522.4 517.5 538C531 522.5 563.7 500.8 586.5 538C602.667 531.5 637.5 522.4 647.5 538C660 557.5 632 601.5 615 601.5C582.2 576.7 582.333 601.5 586.5 617C577.3 606.6 561 612.667 554 617C567.6 643 554 647.833 545.5 647C503 606 527.5 671 545.5 688C563.5 705 554 738.5 545.5 738.5Z" fill="black"/>
<path d="M593.5 692C599.333 694.833 612.1 698.8 616.5 692" stroke="black" stroke-width="4"/>
<path d="M613.5 637C613.5 640.866 610.59 644 607 644C603.41 644 600.5 640.866 600.5 637C600.5 633.134 603.41 630 607 630C610.59 630 613.5 633.134 613.5 637Z" fill="black"/>
<path d="M597.5 635C599.833 632.167 605.9 628.2 611.5 635M613.5 637C613.5 640.866 610.59 644 607 644C603.41 644 600.5 640.866 600.5 637C600.5 633.134 603.41 630 607 630C610.59 630 613.5 633.134 613.5 637Z" stroke="black" stroke-width="2"/>
<path d="M511.5 421H629.5V499H511.5V421Z" fill="#F7631B"/>
<path d="M533.5 459.5C533.5 481.315 525.889 499 516.5 499C507.111 499 499.5 481.315 499.5 459.5C499.5 437.685 507.111 420 516.5 420C525.889 420 533.5 437.685 533.5 459.5Z" fill="#F7631B"/>
<path d="M643.5 460C643.5 481.539 637.232 499 629.5 499C621.768 499 615.5 481.539 615.5 460C615.5 438.461 621.768 421 629.5 421C637.232 421 643.5 438.461 643.5 460Z" fill="#F7631B"/>
<path d="M590.5 421C590.5 428.732 581.098 435 569.5 435C557.902 435 548.5 428.732 548.5 421C548.5 413.268 557.902 407 569.5 407C581.098 407 590.5 413.268 590.5 421Z" fill="#F7631B"/>
<rect x="522.5" y="437" width="67" height="48" fill="#FFFEFE"/>
<ellipse cx="206" cy="350" rx="208" ry="207" fill="#F4BCA0" fill-opacity="0.68"/>
<path d="M306.847 1003.33C284.691 947.184 298.267 768.301 315.637 658.239L445.923 955.344C415.84 1011.3 322.266 1042.41 306.847 1003.33Z" fill="#F7631B"/>
</g>
<defs>
<clipPath id="clip0">
<rect width="1080" height="988" fill="white"/>
</clipPath>
</defs>
</svg>
