<svg width="34" height="46" viewBox="0 0 34 46" fill="none" xmlns="http://www.w3.org/2000/svg">
<rect x="1" y="1" width="32" height="44" rx="2" stroke="#FF3100" stroke-width="2"/>
<mask id="path-2-inside-1" fill="white">
<path d="M21.3091 23.7119C18.9068 23.7119 16.9414 25.6774 16.9414 28.0796C16.9414 30.4818 18.9068 32.4472 21.3091 32.4472C23.7113 32.4472 25.6767 30.4818 25.6767 28.0796C25.6767 25.6774 23.7113 23.7119 21.3091 23.7119ZM21.3091 31.3553C19.5074 31.3553 18.0333 29.8812 18.0333 28.0796C18.0333 26.2779 19.5074 24.8038 21.3091 24.8038C23.1107 24.8038 24.5848 26.2779 24.5848 28.0796C24.5848 29.8812 23.1107 31.3553 21.3091 31.3553Z"/>
</mask>
<path d="M21.3091 23.7119C18.9068 23.7119 16.9414 25.6774 16.9414 28.0796C16.9414 30.4818 18.9068 32.4472 21.3091 32.4472C23.7113 32.4472 25.6767 30.4818 25.6767 28.0796C25.6767 25.6774 23.7113 23.7119 21.3091 23.7119ZM21.3091 31.3553C19.5074 31.3553 18.0333 29.8812 18.0333 28.0796C18.0333 26.2779 19.5074 24.8038 21.3091 24.8038C23.1107 24.8038 24.5848 26.2779 24.5848 28.0796C24.5848 29.8812 23.1107 31.3553 21.3091 31.3553Z" fill="#FF3100"/>
<path d="M21.3091 13.7119C13.384 13.7119 6.94141 20.1545 6.94141 28.0796H26.9414C26.9414 31.2002 24.4297 33.7119 21.3091 33.7119V13.7119ZM6.94141 28.0796C6.94141 36.0046 13.384 42.4472 21.3091 42.4472V22.4472C24.4297 22.4472 26.9414 24.9589 26.9414 28.0796H6.94141ZM21.3091 42.4472C29.2341 42.4472 35.6767 36.0046 35.6767 28.0796H15.6767C15.6767 24.9589 18.1884 22.4472 21.3091 22.4472V42.4472ZM35.6767 28.0796C35.6767 20.1545 29.2341 13.7119 21.3091 13.7119V33.7119C18.1884 33.7119 15.6767 31.2002 15.6767 28.0796H35.6767ZM21.3091 21.3553C25.0302 21.3553 28.0333 24.3584 28.0333 28.0796H8.03332C8.03332 35.4041 13.9846 41.3553 21.3091 41.3553V21.3553ZM28.0333 28.0796C28.0333 31.8008 25.0302 34.8038 21.3091 34.8038V14.8038C13.9846 14.8038 8.03332 20.7551 8.03332 28.0796H28.0333ZM21.3091 34.8038C17.5879 34.8038 14.5848 31.8008 14.5848 28.0796H34.5848C34.5848 20.7551 28.6336 14.8038 21.3091 14.8038V34.8038ZM14.5848 28.0796C14.5848 24.3584 17.5879 21.3553 21.3091 21.3553V41.3553C28.6336 41.3553 34.5848 35.4041 34.5848 28.0796H14.5848Z" fill="#FF3100" mask="url(#path-2-inside-1)"/>
<mask id="path-4-inside-2" fill="white">
<path d="M27.9248 26.4504C27.7079 26.2839 27.4911 26.0063 27.4369 25.8952C27.3827 25.7287 27.4369 25.3956 27.4911 25.0625C27.5995 24.5073 27.7079 23.8966 27.3827 23.3414C27.0032 22.8418 26.4069 22.7863 25.8106 22.6752C25.5396 22.6197 25.1601 22.6197 25.0517 22.5087C24.9433 22.3976 24.7807 22.0645 24.6723 21.8425C24.4554 21.3428 24.1844 20.7321 23.5881 20.5101C22.9918 20.3435 22.4497 20.6211 22.0161 20.8987C21.745 21.0652 21.4198 21.2318 21.2571 21.2318C21.0945 21.2318 20.7693 21.0652 20.4982 20.8987C20.0103 20.6211 19.4683 20.288 18.9262 20.5101C18.3299 20.7321 18.0588 21.2873 17.842 21.8425C17.7336 22.1201 17.571 22.3976 17.4083 22.5087C17.2999 22.6197 16.9747 22.6752 16.6494 22.6752C16.1073 22.7308 15.4568 22.8418 15.0774 23.3414C14.7521 23.8411 14.8606 24.4518 14.969 25.007C15.0232 25.2846 15.0774 25.6732 15.0232 25.8397C14.969 26.0063 14.6979 26.2284 14.5353 26.3949C14.1558 26.839 13.668 27.2832 13.668 27.8939C13.668 28.5046 14.1558 29.0042 14.5895 29.3928C14.8063 29.5594 15.0232 29.837 15.0774 29.948C15.1316 30.1146 15.0774 30.4477 15.0232 30.7808C14.9148 31.336 14.8063 31.9467 15.1316 32.5018C15.5111 33.0015 16.1073 33.057 16.7036 33.168C16.8663 33.168 17.0831 33.2236 17.2457 33.2791V37.887C17.2457 38.3312 17.4626 38.7198 17.842 38.8863C18.0046 38.9419 18.1673 38.9974 18.3299 38.9974C18.5467 38.9974 18.7636 38.9419 18.9804 38.7753L21.3114 36.9987L23.6423 38.7753C23.9676 39.0529 24.4012 39.0529 24.7807 38.8863C25.1601 38.7198 25.377 38.3312 25.377 37.887V33.2236C25.5396 33.168 25.7564 33.168 25.9191 33.1125C26.4611 33.057 27.1116 32.946 27.4911 32.4463C27.8706 31.9467 27.7079 31.336 27.5995 30.7253C27.5453 30.4477 27.4911 30.0591 27.5453 29.8925C27.5995 29.726 27.8706 29.5039 28.0332 29.3373C28.4669 28.9487 28.9547 28.5046 28.9547 27.8384C28.8463 27.2832 28.3584 26.839 27.9248 26.4504ZM21.2571 35.5553L18.2757 37.776V34.778C18.4383 35.0001 18.6551 35.1667 18.9262 35.2777C19.5225 35.4443 20.0646 35.1667 20.4982 34.8891C20.7693 34.7225 21.0945 34.556 21.2571 34.556C21.4198 34.556 21.745 34.7225 22.0161 34.8891C22.3955 35.1111 22.8292 35.3332 23.2629 35.3332C23.3713 35.3332 23.4797 35.3332 23.6423 35.2777C23.9134 35.1667 24.1302 35.0001 24.2386 34.8336V37.8315L21.2571 35.5553ZM27.2201 28.5601C26.8948 28.8932 26.5696 29.1708 26.4069 29.6149C26.2443 30.0591 26.3527 30.5587 26.4611 31.0029C26.5154 31.2804 26.6238 31.7246 26.5154 31.8356C26.4611 31.9467 25.9733 32.0022 25.7022 32.0577C25.2686 32.1132 24.7807 32.1687 24.4012 32.4463C24.0218 32.7239 23.8591 33.168 23.6423 33.5567C23.5339 33.8342 23.3171 34.2229 23.2086 34.2784C23.1002 34.3339 22.6666 34.1118 22.5039 33.9453C22.1245 33.7232 21.6908 33.4456 21.2029 33.4456C20.7151 33.4456 20.2814 33.7232 19.9019 33.9453C19.6851 34.0563 19.3056 34.2784 19.1972 34.2784C19.0888 34.2229 18.9262 33.7787 18.8178 33.5011C18.6551 33.057 18.4383 32.6684 18.0588 32.3908C17.6794 32.1132 17.2457 32.0577 16.7578 32.0022C16.4868 31.9467 16.0531 31.8911 15.9447 31.7801C15.8905 31.6691 15.9447 31.2249 15.9989 30.9473C16.1073 30.5032 16.1616 30.0035 16.0531 29.5594C15.9447 29.1153 15.5653 28.8377 15.24 28.5046C15.0232 28.2825 14.6979 28.0049 14.6979 27.8384C14.6979 27.6718 15.0232 27.3942 15.24 27.1722C15.5653 26.839 15.8905 26.5615 16.0531 26.1173C16.2158 25.6732 16.1073 25.1735 15.9989 24.7294C15.9989 24.5628 15.8905 24.1187 15.9989 24.0077C16.0531 23.8966 16.541 23.8411 16.8121 23.7856C17.2457 23.7301 17.7336 23.6745 18.1131 23.397C18.4925 23.1194 18.6551 22.6752 18.872 22.2866C18.9262 22.009 19.0888 21.6204 19.2514 21.5649C19.3598 21.5094 19.7935 21.7314 19.9561 21.898C20.3356 22.1201 20.7693 22.3421 21.2571 22.3421C21.745 22.3421 22.1787 22.0645 22.5581 21.8425C22.775 21.7314 23.1544 21.5094 23.2629 21.5094C23.3713 21.5649 23.5881 21.9535 23.6965 22.2311C23.8591 22.6752 24.076 23.0639 24.4554 23.3414C24.8349 23.619 25.2686 23.6745 25.7564 23.7301C26.0275 23.7856 26.4611 23.8411 26.5696 23.9521C26.6238 24.0632 26.5696 24.5073 26.5154 24.7849C26.4069 25.229 26.3527 25.7287 26.4611 26.1728C26.5696 26.617 26.949 26.8946 27.2743 27.2277C27.4911 27.4497 27.8164 27.7273 27.8164 27.8939C27.8164 28.0604 27.4369 28.3935 27.2201 28.5601Z"/>
</mask>
<path d="M27.9248 26.4504C27.7079 26.2839 27.4911 26.0063 27.4369 25.8952C27.3827 25.7287 27.4369 25.3956 27.4911 25.0625C27.5995 24.5073 27.7079 23.8966 27.3827 23.3414C27.0032 22.8418 26.4069 22.7863 25.8106 22.6752C25.5396 22.6197 25.1601 22.6197 25.0517 22.5087C24.9433 22.3976 24.7807 22.0645 24.6723 21.8425C24.4554 21.3428 24.1844 20.7321 23.5881 20.5101C22.9918 20.3435 22.4497 20.6211 22.0161 20.8987C21.745 21.0652 21.4198 21.2318 21.2571 21.2318C21.0945 21.2318 20.7693 21.0652 20.4982 20.8987C20.0103 20.6211 19.4683 20.288 18.9262 20.5101C18.3299 20.7321 18.0588 21.2873 17.842 21.8425C17.7336 22.1201 17.571 22.3976 17.4083 22.5087C17.2999 22.6197 16.9747 22.6752 16.6494 22.6752C16.1073 22.7308 15.4568 22.8418 15.0774 23.3414C14.7521 23.8411 14.8606 24.4518 14.969 25.007C15.0232 25.2846 15.0774 25.6732 15.0232 25.8397C14.969 26.0063 14.6979 26.2284 14.5353 26.3949C14.1558 26.839 13.668 27.2832 13.668 27.8939C13.668 28.5046 14.1558 29.0042 14.5895 29.3928C14.8063 29.5594 15.0232 29.837 15.0774 29.948C15.1316 30.1146 15.0774 30.4477 15.0232 30.7808C14.9148 31.336 14.8063 31.9467 15.1316 32.5018C15.5111 33.0015 16.1073 33.057 16.7036 33.168C16.8663 33.168 17.0831 33.2236 17.2457 33.2791V37.887C17.2457 38.3312 17.4626 38.7198 17.842 38.8863C18.0046 38.9419 18.1673 38.9974 18.3299 38.9974C18.5467 38.9974 18.7636 38.9419 18.9804 38.7753L21.3114 36.9987L23.6423 38.7753C23.9676 39.0529 24.4012 39.0529 24.7807 38.8863C25.1601 38.7198 25.377 38.3312 25.377 37.887V33.2236C25.5396 33.168 25.7564 33.168 25.9191 33.1125C26.4611 33.057 27.1116 32.946 27.4911 32.4463C27.8706 31.9467 27.7079 31.336 27.5995 30.7253C27.5453 30.4477 27.4911 30.0591 27.5453 29.8925C27.5995 29.726 27.8706 29.5039 28.0332 29.3373C28.4669 28.9487 28.9547 28.5046 28.9547 27.8384C28.8463 27.2832 28.3584 26.839 27.9248 26.4504ZM21.2571 35.5553L18.2757 37.776V34.778C18.4383 35.0001 18.6551 35.1667 18.9262 35.2777C19.5225 35.4443 20.0646 35.1667 20.4982 34.8891C20.7693 34.7225 21.0945 34.556 21.2571 34.556C21.4198 34.556 21.745 34.7225 22.0161 34.8891C22.3955 35.1111 22.8292 35.3332 23.2629 35.3332C23.3713 35.3332 23.4797 35.3332 23.6423 35.2777C23.9134 35.1667 24.1302 35.0001 24.2386 34.8336V37.8315L21.2571 35.5553ZM27.2201 28.5601C26.8948 28.8932 26.5696 29.1708 26.4069 29.6149C26.2443 30.0591 26.3527 30.5587 26.4611 31.0029C26.5154 31.2804 26.6238 31.7246 26.5154 31.8356C26.4611 31.9467 25.9733 32.0022 25.7022 32.0577C25.2686 32.1132 24.7807 32.1687 24.4012 32.4463C24.0218 32.7239 23.8591 33.168 23.6423 33.5567C23.5339 33.8342 23.3171 34.2229 23.2086 34.2784C23.1002 34.3339 22.6666 34.1118 22.5039 33.9453C22.1245 33.7232 21.6908 33.4456 21.2029 33.4456C20.7151 33.4456 20.2814 33.7232 19.9019 33.9453C19.6851 34.0563 19.3056 34.2784 19.1972 34.2784C19.0888 34.2229 18.9262 33.7787 18.8178 33.5011C18.6551 33.057 18.4383 32.6684 18.0588 32.3908C17.6794 32.1132 17.2457 32.0577 16.7578 32.0022C16.4868 31.9467 16.0531 31.8911 15.9447 31.7801C15.8905 31.6691 15.9447 31.2249 15.9989 30.9473C16.1073 30.5032 16.1616 30.0035 16.0531 29.5594C15.9447 29.1153 15.5653 28.8377 15.24 28.5046C15.0232 28.2825 14.6979 28.0049 14.6979 27.8384C14.6979 27.6718 15.0232 27.3942 15.24 27.1722C15.5653 26.839 15.8905 26.5615 16.0531 26.1173C16.2158 25.6732 16.1073 25.1735 15.9989 24.7294C15.9989 24.5628 15.8905 24.1187 15.9989 24.0077C16.0531 23.8966 16.541 23.8411 16.8121 23.7856C17.2457 23.7301 17.7336 23.6745 18.1131 23.397C18.4925 23.1194 18.6551 22.6752 18.872 22.2866C18.9262 22.009 19.0888 21.6204 19.2514 21.5649C19.3598 21.5094 19.7935 21.7314 19.9561 21.898C20.3356 22.1201 20.7693 22.3421 21.2571 22.3421C21.745 22.3421 22.1787 22.0645 22.5581 21.8425C22.775 21.7314 23.1544 21.5094 23.2629 21.5094C23.3713 21.5649 23.5881 21.9535 23.6965 22.2311C23.8591 22.6752 24.076 23.0639 24.4554 23.3414C24.8349 23.619 25.2686 23.6745 25.7564 23.7301C26.0275 23.7856 26.4611 23.8411 26.5696 23.9521C26.6238 24.0632 26.5696 24.5073 26.5154 24.7849C26.4069 25.229 26.3527 25.7287 26.4611 26.1728C26.5696 26.617 26.949 26.8946 27.2743 27.2277C27.4911 27.4497 27.8164 27.7273 27.8164 27.8939C27.8164 28.0604 27.4369 28.3935 27.2201 28.5601Z" fill="#FF3100"/>
<path d="M27.9248 26.4504L34.5985 19.0032L34.3165 18.7505L34.0163 18.5199L27.9248 26.4504ZM27.4369 25.8952L17.9279 28.9902L18.1441 29.6546L18.4506 30.2824L27.4369 25.8952ZM27.4911 25.0625L17.6765 23.1459L17.6463 23.3006L17.6209 23.4562L27.4911 25.0625ZM27.3827 23.3414L36.011 18.2865L35.7085 17.7701L35.3465 17.2934L27.3827 23.3414ZM25.8106 22.6752L23.804 32.4718L23.8919 32.4898L23.98 32.5062L25.8106 22.6752ZM24.6723 21.8425L15.4988 25.8234L15.5879 26.0286L15.686 26.2297L24.6723 21.8425ZM23.5881 20.5101L27.0781 11.1388L26.6837 10.9919L26.2783 10.8787L23.5881 20.5101ZM22.0161 20.8987L27.2515 29.4187L27.3298 29.3706L27.4072 29.321L22.0161 20.8987ZM20.4982 20.8987L25.7337 12.3787L25.59 12.2904L25.4435 12.2071L20.4982 20.8987ZM18.9262 20.5101L22.4162 29.8813L22.5676 29.8249L22.717 29.7637L18.9262 20.5101ZM17.4083 22.5087L11.7696 14.2501L10.9483 14.8109L10.2534 15.5225L17.4083 22.5087ZM16.6494 22.6752V12.6752H16.1387L15.6306 12.7273L16.6494 22.6752ZM15.0774 23.3414L7.11361 17.2934L6.89435 17.5822L6.69658 17.886L15.0774 23.3414ZM14.5353 26.3949L7.38038 19.4087L7.1482 19.6465L6.93232 19.8992L14.5353 26.3949ZM14.5895 29.3928L7.9158 36.8401L8.19774 37.0928L8.49798 37.3234L14.5895 29.3928ZM15.0774 29.948L24.5864 26.8531L24.3702 26.1887L24.0636 25.5608L15.0774 29.948ZM15.0232 30.7808L24.8378 32.6974L24.868 32.5427L24.8933 32.387L15.0232 30.7808ZM15.1316 32.5018L6.50328 37.5567L6.80583 38.0732L7.16782 38.5498L15.1316 32.5018ZM16.7036 33.168L14.873 42.9991L15.7805 43.168H16.7036V33.168ZM17.2457 33.2791H27.2457V26.1262L20.4765 23.8153L17.2457 33.2791ZM17.842 38.8863L13.8229 48.0431L14.2106 48.2133L14.6113 48.3501L17.842 38.8863ZM18.9804 38.7753L12.9187 30.8219L12.9038 30.8333L12.8889 30.8448L18.9804 38.7753ZM21.3114 36.9987L27.3731 29.0454L21.3114 24.4254L15.2496 29.0454L21.3114 36.9987ZM23.6423 38.7753L30.1341 31.1689L29.9238 30.9895L29.704 30.822L23.6423 38.7753ZM25.377 33.2236L22.1462 23.7598L15.377 26.0707V33.2236H25.377ZM25.9191 33.1125L24.9002 23.1646L23.7667 23.2806L22.6883 23.6488L25.9191 33.1125ZM27.5995 30.7253L37.4456 28.9773L37.4306 28.8928L37.4141 28.8086L27.5995 30.7253ZM28.0332 29.3373L21.3595 21.8901L21.1112 22.1126L20.8783 22.3511L28.0332 29.3373ZM28.9547 27.8384H38.9547V26.8711L38.7693 25.9217L28.9547 27.8384ZM21.2571 35.5553L27.3254 27.6069L21.3315 23.0308L15.2837 27.5355L21.2571 35.5553ZM18.2757 37.776H8.27568V57.6934L24.2491 45.7958L18.2757 37.776ZM18.2757 34.778L26.3436 28.8697L8.27568 4.19736V34.778H18.2757ZM18.9262 35.2777L15.1353 44.5313L15.6747 44.7523L16.236 44.9091L18.9262 35.2777ZM20.4982 34.8891L15.2628 26.3691L15.1845 26.4172L15.1071 26.4667L20.4982 34.8891ZM22.0161 34.8891L16.7806 43.4091L16.8723 43.4654L16.9652 43.5197L22.0161 34.8891ZM23.6423 35.2777L26.8731 44.7414L27.1563 44.6448L27.4331 44.5313L23.6423 35.2777ZM24.2386 34.8336H34.2386V1.14107L15.8578 29.3781L24.2386 34.8336ZM24.2386 37.8315L18.1704 45.7799L34.2386 58.0473V37.8315H24.2386ZM27.2201 28.5601L21.1285 20.6296L20.5632 21.0638L20.0651 21.5739L27.2201 28.5601ZM26.4611 31.0029L36.2758 29.0862L36.2311 28.8577L36.1759 28.6314L26.4611 31.0029ZM26.5154 31.8356L19.3604 24.8494L18.2355 26.0015L17.5291 27.4484L26.5154 31.8356ZM25.7022 32.0577L26.9721 41.9767L27.3427 41.9293L27.7089 41.8543L25.7022 32.0577ZM23.6423 33.5567L14.9096 28.6842L14.5764 29.2815L14.3276 29.9186L23.6423 33.5567ZM22.5039 33.9453L29.6589 26.9591L28.7176 25.9951L27.5548 25.3146L22.5039 33.9453ZM19.9019 33.9453L24.4598 42.8461L24.7101 42.718L24.9528 42.5759L19.9019 33.9453ZM19.1972 34.2784L14.6393 43.1793L16.7857 44.2784H19.1972V34.2784ZM18.8178 33.5011L9.42746 36.9395L9.46417 37.0397L9.50301 37.1392L18.8178 33.5011ZM16.7578 32.0022L14.7512 41.7988L15.1861 41.8879L15.6272 41.938L16.7578 32.0022ZM15.9447 31.7801L6.95847 36.1673L7.66489 37.6142L8.7898 38.7663L15.9447 31.7801ZM15.9989 30.9473L6.28418 28.5759L6.22896 28.8021L6.18432 29.0307L15.9989 30.9473ZM15.9989 24.7294H5.99893V25.9322L6.28418 27.1008L15.9989 24.7294ZM15.9989 24.0077L23.1538 30.9939L24.2788 29.8418L24.9852 28.3948L15.9989 24.0077ZM16.8121 23.7856L15.5422 13.8665L15.1715 13.914L14.8054 13.989L16.8121 23.7856ZM18.872 22.2866L27.6046 27.159L28.3811 25.7674L28.6866 24.2032L18.872 22.2866ZM19.2514 21.5649L22.4822 31.0286L23.1661 30.7951L23.8093 30.4658L19.2514 21.5649ZM19.9561 21.898L12.8012 28.8842L13.7425 29.8482L14.9052 30.5287L19.9561 21.898ZM22.5581 21.8425L18.0002 12.9416L17.7499 13.0698L17.5072 13.2118L22.5581 21.8425ZM23.2629 21.5094L27.8208 12.6085L25.6743 11.5094H23.2629V21.5094ZM23.6965 22.2311L33.0868 18.7928L33.0501 18.6925L33.0113 18.5931L23.6965 22.2311ZM25.7564 23.7301L27.7631 13.9335L27.3282 13.8444L26.8871 13.7942L25.7564 23.7301ZM26.5696 23.9521L35.5558 19.565L34.8494 18.118L33.7245 16.9659L26.5696 23.9521ZM26.5154 24.7849L36.2301 27.1563L36.2853 26.9301L36.33 26.7015L26.5154 24.7849ZM34.0163 18.5199C34.6562 19.0114 35.0597 19.4633 35.2534 19.6923C35.375 19.8359 35.5146 20.0119 35.6656 20.225C35.7589 20.3567 36.0901 20.8258 36.4231 21.5081L18.4506 30.2824C19.0313 31.4718 19.7443 32.3258 19.9863 32.6118C20.3562 33.0489 20.9765 33.7229 21.8332 34.3809L34.0163 18.5199ZM36.9459 22.8003C37.3479 24.0353 37.3992 25.0465 37.4109 25.4588C37.4247 25.9466 37.3947 26.3137 37.3804 26.4673C37.3558 26.7312 37.3192 26.9274 37.3613 26.6687L17.6209 23.4562C17.6088 23.5307 17.518 24.0599 17.4663 24.6154C17.4515 24.7743 17.2008 26.7561 17.9279 28.9902L36.9459 22.8003ZM37.3057 26.9791C37.3203 26.9044 38.5062 22.5456 36.011 18.2865L18.7544 28.3964C17.7969 26.762 17.5995 25.19 17.5995 24.202C17.5995 23.3963 17.7453 22.7934 17.6765 23.1459L37.3057 26.9791ZM35.3465 17.2934C33.5919 14.9831 31.3925 13.8924 29.8361 13.3744C29.1237 13.1373 28.5141 13.0087 28.1825 12.9435C28.0107 12.9098 27.8578 12.8827 27.777 12.8684C27.6702 12.8494 27.6592 12.8476 27.6413 12.8442L23.98 32.5062C24.1112 32.5307 24.2493 32.5548 24.2906 32.5621C24.3581 32.5741 24.3526 32.5734 24.3264 32.5683C24.2862 32.5604 23.9612 32.4977 23.5198 32.3508C22.5055 32.0132 20.794 31.2001 19.4189 29.3894L35.3465 17.2934ZM27.8173 12.8786C27.3539 12.7837 26.9616 12.7349 26.8487 12.7206C26.5955 12.6885 26.7635 12.7102 26.8179 12.7181C26.8837 12.7278 27.3921 12.7981 28.0458 12.9938C28.3929 13.0977 28.9536 13.2869 29.6081 13.6171C30.2448 13.9382 31.2298 14.5221 32.2066 15.5225L17.8968 29.4949C18.9007 30.5231 19.9214 31.1312 20.6006 31.4738C21.2976 31.8254 21.9079 32.0333 22.31 32.1537C23.0739 32.3823 23.7144 32.477 23.9225 32.5074C24.1192 32.5362 24.4396 32.5752 24.3372 32.5622C24.3358 32.5621 24.3228 32.5604 24.3024 32.5576C24.2819 32.5549 24.2493 32.5503 24.2078 32.544C24.1302 32.5323 23.9873 32.5094 23.804 32.4718L27.8173 12.8786ZM32.2066 15.5225C32.6004 15.9258 32.8758 16.2789 33.0263 16.4807C33.1894 16.6995 33.3103 16.8823 33.3857 17.0001C33.5314 17.2278 33.624 17.3974 33.652 17.449C33.7038 17.5446 33.7294 17.6005 33.6585 17.4553L15.686 26.2297C15.7235 26.3065 15.8846 26.64 16.072 26.9854C16.1677 27.1619 16.3281 27.4495 16.5382 27.7779C16.6827 28.0038 17.1489 28.7289 17.8968 29.4949L32.2066 15.5225ZM33.8457 17.8615C33.7837 17.7186 33.3015 16.5372 32.4746 15.3516C31.5559 14.0343 29.8624 12.1757 27.0781 11.1388L20.0981 29.8813C17.9101 29.0664 16.6503 27.6242 16.0703 26.7927C15.5823 26.0929 15.344 25.4667 15.4988 25.8234L33.8457 17.8615ZM26.2783 10.8787C21.1278 9.44009 17.1993 12.1087 16.625 12.4763L27.4072 29.321C27.3846 29.3355 26.7479 29.7599 25.7466 30.0755C24.6173 30.4313 22.8796 30.6949 20.8979 30.1414L26.2783 10.8787ZM16.7806 12.3787C16.8552 12.3328 17.0702 12.2026 17.4104 12.0458C17.5788 11.9681 17.9222 11.8168 18.3906 11.6687C18.6321 11.5923 18.9796 11.4935 19.4087 11.4097C19.8197 11.3294 20.4616 11.2318 21.2571 11.2318V31.2318C23.7618 31.2318 25.6835 30.2548 25.7815 30.2096C26.3928 29.9279 26.9059 29.6311 27.2515 29.4187L16.7806 12.3787ZM21.2571 11.2318C22.0527 11.2318 22.6946 11.3294 23.1056 11.4097C23.5346 11.4935 23.8822 11.5923 24.1236 11.6687C24.5921 11.8168 24.9354 11.9681 25.1039 12.0458C25.4441 12.2026 25.6591 12.3328 25.7337 12.3787L15.2628 29.4187C15.6084 29.6311 16.1215 29.9279 16.7328 30.2096C16.8308 30.2548 18.7525 31.2318 21.2571 31.2318V11.2318ZM25.4435 12.2071C25.435 12.2022 25.0866 12.0003 24.7522 11.8256C24.3839 11.6333 23.7576 11.3244 22.9633 11.0533C21.3159 10.4909 18.3947 9.92121 15.1353 11.2564L22.717 29.7637C19.9998 30.8768 17.6207 30.3627 16.5018 29.9807C15.9717 29.7998 15.6063 29.6124 15.4938 29.5536C15.4152 29.5126 15.3176 29.4564 15.5529 29.5903L25.4435 12.2071ZM15.4362 11.1388C10.2896 13.0555 8.70551 17.7481 8.52726 18.2044L27.1568 25.4805C27.2095 25.3454 26.964 26.0492 26.365 26.8835C25.6518 27.8768 24.3786 29.1504 22.4162 29.8813L15.4362 11.1388ZM8.52726 18.2044C8.66104 17.8619 8.86647 17.4112 9.19147 16.8968C9.35818 16.6329 9.61206 16.2638 9.96964 15.8509C10.3066 15.4617 10.8961 14.8465 11.7696 14.2501L23.0471 30.7673C24.7836 29.5817 25.739 28.15 26.0996 27.5793C26.5736 26.829 26.9146 26.1006 27.1568 25.4805L8.52726 18.2044ZM10.2534 15.5225C11.5641 14.1801 12.9172 13.5662 13.4989 13.3279C14.191 13.0444 14.7667 12.906 15.1036 12.837C15.7788 12.6987 16.3113 12.6752 16.6494 12.6752V32.6752C17.3128 32.6752 18.1705 32.624 19.1168 32.4302C19.5892 32.3335 20.2869 32.1603 21.0806 31.8352C21.764 31.5552 23.1983 30.8928 24.5633 29.4949L10.2534 15.5225ZM15.6306 12.7273C15.3648 12.7545 10.3908 12.9782 7.11361 17.2934L23.0412 29.3894C21.709 31.1435 20.0777 31.9405 19.1035 32.2812C18.2274 32.5876 17.5611 32.6342 17.6682 32.6232L15.6306 12.7273ZM6.69658 17.886C5.16376 20.2407 4.86055 22.6002 4.86055 24.1534C4.86055 25.5412 5.11791 26.7369 5.15436 26.9236L24.7836 23.0903C24.7116 22.7218 24.8606 23.3346 24.8606 24.1534C24.8606 25.1375 24.6658 26.9418 23.4582 28.7969L6.69658 17.886ZM5.15436 26.9236C5.14297 26.8652 5.10381 26.6636 5.0759 26.3492C5.06208 26.1935 5.03696 25.8589 5.04868 25.4146C5.05473 25.1853 5.07231 24.8529 5.12566 24.4511C5.17644 24.0687 5.28011 23.4639 5.51416 22.7448L24.5322 28.9347C25.2639 26.6865 25.0041 24.6542 24.9976 24.5808C24.9425 23.961 24.8492 23.4263 24.7836 23.0903L5.15436 26.9236ZM5.51416 22.7448C5.77713 21.9369 6.09754 21.3119 6.33651 20.8986C6.58135 20.4752 6.81507 20.1467 6.98317 19.9253C7.30355 19.5035 7.57951 19.2186 7.66498 19.1311C7.76087 19.0329 7.83558 18.9631 7.77165 19.024C7.76664 19.0288 7.57308 19.2113 7.38038 19.4087L21.6902 33.3811C21.5788 33.4952 21.4801 33.5875 21.5734 33.4986C21.6077 33.4659 21.7841 33.2989 21.9748 33.1035C22.1552 32.9188 22.5192 32.5369 22.9107 32.0213C23.2348 31.5945 24.0179 30.5149 24.5322 28.9347L5.51416 22.7448ZM6.93232 19.8992C6.95436 19.8734 6.96214 19.8651 6.91617 19.9168C6.88893 19.9475 6.79347 20.0543 6.703 20.1581C6.52106 20.3667 6.14898 20.7996 5.75718 21.3614C4.96522 22.4969 3.66797 24.758 3.66797 27.8939H23.668C23.668 30.419 22.6147 32.1527 22.1615 32.8025C22.0425 32.9731 21.9421 33.1017 21.8795 33.1794C21.8473 33.2193 21.8215 33.2502 21.8046 33.2701C21.7879 33.2899 21.7775 33.3019 21.7764 33.3031C21.7757 33.304 21.7803 33.2987 21.7954 33.2816C21.8155 33.2589 21.826 33.2473 21.862 33.2067C21.9153 33.1468 22.0214 33.0275 22.1383 32.8906L6.93232 19.8992ZM3.66797 27.8939C3.66797 30.9606 4.90629 33.2312 5.79378 34.4897C6.65123 35.7056 7.5866 36.5451 7.9158 36.8401L21.2632 21.9456C21.1588 21.852 21.6334 22.2473 22.1384 22.9636C22.6736 23.7224 23.668 25.4378 23.668 27.8939H3.66797ZM8.49798 37.3234C7.85805 36.8318 7.45461 36.38 7.26086 36.151C7.13931 36.0074 6.99969 35.8314 6.84873 35.6183C6.75542 35.4866 6.42422 35.0175 6.09114 34.3352L24.0636 25.5608C23.483 24.3715 22.77 23.5175 22.528 23.2315C22.1581 22.7943 21.5378 22.1204 20.681 21.4623L8.49798 37.3234ZM5.56837 33.043C5.16641 31.808 5.11508 30.7967 5.10341 30.3845C5.08961 29.8967 5.11961 29.5296 5.1339 29.376C5.15845 29.112 5.19511 28.9159 5.15302 29.1745L24.8933 32.387C24.9055 32.3125 24.9963 31.7833 25.048 31.2279C25.0628 31.0689 25.3135 29.0872 24.5864 26.8531L5.56837 33.043ZM5.20857 28.8641C5.19398 28.9388 4.0081 33.2977 6.50328 37.5567L23.7599 27.4469C24.7174 29.0813 24.9148 30.6533 24.9148 31.6413C24.9148 32.447 24.769 33.0499 24.8378 32.6974L5.20857 28.8641ZM7.16782 38.5498C8.92236 40.8601 11.1218 41.9508 12.6782 42.4689C13.3906 42.706 14.0002 42.8346 14.3317 42.8997C14.5036 42.9335 14.6565 42.9606 14.7372 42.9749C14.8441 42.9938 14.8551 42.9957 14.873 42.9991L18.5343 23.337C18.4031 23.3126 18.265 23.2885 18.2237 23.2811C18.1562 23.2692 18.1617 23.2698 18.1879 23.275C18.228 23.2829 18.553 23.3455 18.9944 23.4925C20.0088 23.8301 21.7203 24.6432 23.0954 26.4538L7.16782 38.5498ZM16.7036 43.168C16.1986 43.168 15.7896 43.1267 15.518 43.0906C15.2356 43.0531 15.0027 43.0079 14.8311 42.9703C14.4999 42.8976 14.2287 42.8158 14.015 42.7428L20.4765 23.8153C20.0351 23.6647 18.5536 23.168 16.7036 23.168V43.168ZM7.24572 33.2791V37.887H27.2457V33.2791H7.24572ZM7.24572 37.887C7.24572 41.4966 9.12675 45.9819 13.8229 48.0431L21.8611 29.7295C25.7984 31.4577 27.2457 35.1657 27.2457 37.887H7.24572ZM14.6113 48.3501C14.624 48.3544 15.0792 48.5154 15.6056 48.6502C16.1716 48.7951 17.1319 48.9974 18.3299 48.9974V28.9974C19.3653 28.9974 20.1629 29.1719 20.5663 29.2752C20.9301 29.3683 21.2226 29.4738 21.0728 29.4226L14.6113 48.3501ZM18.3299 48.9974C20.4933 48.9974 22.9149 48.3626 25.0719 46.7058L12.8889 30.8448C13.6576 30.2543 14.5721 29.7559 15.607 29.4247C16.6302 29.0972 17.5695 28.9974 18.3299 28.9974V48.9974ZM25.0421 46.7286L27.3731 44.9521L15.2496 29.0454L12.9187 30.8219L25.0421 46.7286ZM15.2496 44.9521L17.5806 46.7286L29.704 30.822L27.3731 29.0454L15.2496 44.9521ZM17.1506 46.3817C21.2455 49.8766 26.0687 49.2419 28.7998 48.0431L20.7616 29.7295C22.7338 28.8639 26.6896 28.2292 30.1341 31.1689L17.1506 46.3817ZM28.7998 48.0431C33.4959 45.9819 35.377 41.4966 35.377 37.887H15.377C15.377 35.1657 16.8243 31.4577 20.7616 29.7295L28.7998 48.0431ZM35.377 37.887V33.2236H15.377V37.887H35.377ZM28.6077 42.6873C28.3106 42.7887 28.0526 42.8601 27.8527 42.9098C27.6525 42.9596 27.4862 42.9936 27.3708 43.0154C27.2556 43.0373 27.1675 43.0515 27.1267 43.0579C27.0907 43.0635 27.0632 43.0674 27.0957 43.0627C27.1106 43.0605 27.1855 43.0496 27.2685 43.0366C27.3564 43.0228 27.4911 43.0009 27.652 42.9703C27.8132 42.9398 28.0243 42.8962 28.2681 42.8356C28.5117 42.7751 28.812 42.6916 29.1498 42.5763L22.6883 23.6488C22.9855 23.5473 23.2434 23.476 23.4434 23.4263C23.6436 23.3765 23.8098 23.3425 23.9253 23.3206C24.0404 23.2988 24.1285 23.2846 24.1694 23.2782C24.2054 23.2726 24.2329 23.2686 24.2004 23.2734C24.1854 23.2756 24.1105 23.2864 24.0275 23.2995C23.9396 23.3132 23.8049 23.3352 23.6441 23.3657C23.4829 23.3963 23.2718 23.4398 23.0279 23.5005C22.7844 23.561 22.484 23.6445 22.1462 23.7598L28.6077 42.6873ZM26.9379 43.0605C27.2037 43.0333 32.1777 42.8096 35.4549 38.4943L19.5273 26.3983C20.8595 24.6442 22.4908 23.8472 23.465 23.5065C24.3411 23.2002 25.0074 23.1536 24.9002 23.1646L26.9379 43.0605ZM35.4549 38.4943C37.435 35.887 37.7661 33.1385 37.7256 31.395C37.7069 30.591 37.6097 29.9309 37.5518 29.5753C37.5215 29.3887 37.4915 29.2256 37.4747 29.135C37.4521 29.0127 37.4507 29.0062 37.4456 28.9773L17.7535 32.4732C17.7754 32.597 17.8029 32.7431 17.8084 32.7731C17.8198 32.8347 17.8173 32.8235 17.8115 32.7878C17.8028 32.7341 17.7429 32.3724 17.731 31.8598C17.704 30.6993 17.9267 28.506 19.5273 26.3983L35.4549 38.4943ZM37.4141 28.8086C37.4255 28.867 37.4647 29.0686 37.4926 29.3831C37.5064 29.5387 37.5315 29.8733 37.5198 30.3177C37.5138 30.5469 37.4962 30.8794 37.4428 31.2811C37.3921 31.6635 37.2884 32.2683 37.0543 32.9874L18.0363 26.7976C17.3046 29.0458 17.5644 31.078 17.5709 31.1514C17.6259 31.7713 17.7193 32.306 17.7849 32.6419L37.4141 28.8086ZM37.0543 32.9874C36.7914 33.7954 36.471 34.4204 36.232 34.8336C35.9871 35.257 35.7534 35.5856 35.5853 35.8069C35.2649 36.2288 34.989 36.5136 34.9035 36.6011C34.8076 36.6993 34.7329 36.7691 34.7968 36.7082C34.8018 36.7034 34.9954 36.5209 35.1881 36.3235L20.8783 22.3511C20.9897 22.237 21.0884 22.1447 20.9951 22.2337C20.9608 22.2664 20.7844 22.4333 20.5937 22.6287C20.4133 22.8134 20.0493 23.1954 19.6578 23.7109C19.3336 24.1377 18.5506 25.2173 18.0363 26.7976L37.0543 32.9874ZM34.7069 36.7846C34.811 36.6913 35.8505 35.8054 36.7514 34.5634C37.7994 33.1185 38.9547 30.8291 38.9547 27.8384H18.9547C18.9547 25.5138 19.8661 23.7796 20.5618 22.8205C21.1103 22.0642 21.689 21.5948 21.3595 21.8901L34.7069 36.7846ZM38.7693 25.9217C38.272 23.3752 37.0183 21.6147 36.2623 20.7022C35.5264 19.8139 34.7443 19.1339 34.5985 19.0032L21.2511 33.8977C21.5389 34.1556 21.2176 33.892 20.8612 33.4617C20.4846 33.0072 19.529 31.7463 19.1401 29.755L38.7693 25.9217ZM15.2837 27.5355L12.3022 29.7562L24.2491 45.7958L27.2306 43.5751L15.2837 27.5355ZM28.2757 37.776V34.778H8.27568V37.776H28.2757ZM10.2077 40.6863C11.5308 42.4931 13.2714 43.7678 15.1353 44.5313L22.717 26.0241C24.0388 26.5656 25.3458 27.5071 26.3436 28.8697L10.2077 40.6863ZM16.236 44.9091C21.3865 46.3477 25.315 43.6791 25.8893 43.3114L15.1071 26.4667C15.1297 26.4523 15.7664 26.0278 16.7677 25.7123C17.897 25.3564 19.6346 25.0928 21.6163 25.6463L16.236 44.9091ZM25.7337 43.4091C25.6591 43.4549 25.4441 43.5852 25.1039 43.742C24.9354 43.8196 24.5921 43.9709 24.1237 44.1191C23.8822 44.1955 23.5346 44.2943 23.1056 44.3781C22.6946 44.4583 22.0527 44.556 21.2571 44.556V24.556C18.7525 24.556 16.8308 25.533 16.7328 25.5782C16.1215 25.8599 15.6084 26.1567 15.2628 26.3691L25.7337 43.4091ZM21.2571 44.556C20.4616 44.556 19.8197 44.4583 19.4087 44.3781C18.9796 44.2943 18.6321 44.1955 18.3906 44.1191C17.9222 43.9709 17.5788 43.8196 17.4104 43.742C17.0702 43.5852 16.8552 43.4549 16.7806 43.4091L27.2515 26.3691C26.9059 26.1567 26.3928 25.8599 25.7815 25.5782C25.6835 25.533 23.7618 24.556 21.2571 24.556V44.556ZM16.9652 43.5197C17.2571 43.6906 19.8235 45.3332 23.2629 45.3332V25.3332C24.721 25.3332 25.7991 25.6979 26.3045 25.8983C26.8103 26.0988 27.1276 26.2939 27.067 26.2584L16.9652 43.5197ZM23.2629 45.3332C23.6722 45.3332 25.1168 45.341 26.8731 44.7414L20.4116 25.814C21.0113 25.6092 21.6477 25.4648 22.3016 25.3904C22.8792 25.3247 23.3589 25.3332 23.2629 25.3332V45.3332ZM27.4331 44.5313C28.9299 43.9182 31.0707 42.6682 32.6194 40.289L15.8578 29.3781C16.5909 28.2518 17.4121 27.519 17.9961 27.0805C18.6189 26.6127 19.2494 26.2707 19.8515 26.0241L27.4331 44.5313ZM14.2386 34.8336V37.8315H34.2386V34.8336H14.2386ZM30.3068 29.8831L27.3254 27.6069L15.1889 43.5037L18.1704 45.7799L30.3068 29.8831ZM20.0651 21.5739C20.0693 21.5696 20.0648 21.5743 20.0275 21.6116C20.0023 21.6368 19.9305 21.7084 19.8616 21.7782C19.7209 21.9208 19.4506 22.1977 19.1495 22.5501C18.5074 23.3017 17.6302 24.5008 17.0166 26.1766L35.7972 33.0533C35.3463 34.2849 34.713 35.1231 34.3555 35.5416C34.1967 35.7275 34.0789 35.8448 34.0957 35.8278C34.1056 35.8177 34.1139 35.8095 34.1693 35.7541C34.2127 35.7107 34.2895 35.6338 34.375 35.5463L20.0651 21.5739ZM17.0166 26.1766C15.6535 29.8994 16.7436 33.363 16.7464 33.3743L36.1759 28.6314C36.1224 28.4122 36.2431 28.8422 36.2955 29.4505C36.3522 30.1089 36.3822 31.4558 35.7972 33.0533L17.0166 26.1766ZM16.6465 32.9195C16.7582 33.4915 16.6648 33.0233 16.6294 32.7451C16.6077 32.5751 16.5224 31.9046 16.5838 31.0117C16.6155 30.55 16.7033 29.7483 17.0039 28.7891C17.297 27.8538 17.9366 26.3076 19.3604 24.8494L33.6703 38.8218C35.1212 37.3359 35.7811 35.7515 36.0888 34.7696C36.404 33.7637 36.5007 32.9069 36.5367 32.3837C36.6066 31.3676 36.5111 30.5479 36.4691 30.2183C36.393 29.6209 36.2183 28.7918 36.2758 29.0862L16.6465 32.9195ZM17.5291 27.4484C18.6782 25.0948 20.4082 23.8875 21.0679 23.4633C21.8656 22.9504 22.5559 22.6727 22.8798 22.5508C23.5357 22.3038 24.0466 22.1997 24.1034 22.1876C24.23 22.1606 24.3143 22.1471 24.2208 22.1634C24.2172 22.164 23.9473 22.2095 23.6956 22.2611L27.7089 41.8543C27.5926 41.8781 27.4854 41.8959 27.6513 41.867C27.7271 41.8538 27.9876 41.809 28.2768 41.7473C28.4962 41.7005 29.1562 41.5583 29.9273 41.2679C30.3088 41.1243 31.0482 40.8236 31.884 40.2862C32.5819 39.8375 34.339 38.6042 35.5016 36.2228L17.5291 27.4484ZM24.4324 22.1386C24.3835 22.1449 23.5244 22.2393 22.6218 22.4634C21.6364 22.708 20.0815 23.2162 18.497 24.3753L30.3054 40.5173C29.1004 41.3988 27.9792 41.7404 27.441 41.8741C26.9856 41.9871 26.5873 42.026 26.9721 41.9767L24.4324 22.1386ZM18.497 24.3753C16.7815 25.6303 15.8215 27.0798 15.3588 27.8603C15.1327 28.2416 14.9605 28.5788 14.9032 28.6906C14.8048 28.8822 14.8566 28.7792 14.9096 28.6842L32.375 38.4291C32.5364 38.1398 32.6899 37.8356 32.6949 37.8259C32.7408 37.7365 32.6737 37.8724 32.5628 38.0594C32.3305 38.4513 31.6415 39.5399 30.3054 40.5173L18.497 24.3753ZM14.3276 29.9186C14.479 29.5309 14.6336 29.2251 14.7972 28.9459C14.8784 28.8072 15.0701 28.4889 15.3728 28.0943C15.5235 27.8979 15.7984 27.5555 16.1904 27.1643C16.4969 26.8584 17.3342 26.0517 18.6507 25.3775L27.7666 43.1793C29.9851 42.0432 31.1925 40.3313 31.241 40.2681C31.6182 39.7764 31.8912 39.3332 32.0538 39.0557C32.38 38.4989 32.6972 37.86 32.9571 37.1947L14.3276 29.9186ZM18.6507 25.3775C20.8746 24.2387 22.8814 24.2622 23.6342 24.2984C24.5611 24.343 25.278 24.5108 25.6568 24.612C26.4311 24.8189 26.991 25.0758 27.26 25.207C27.627 25.386 28.6133 25.8883 29.6589 26.9591L15.349 40.9315C16.5572 42.1688 17.8417 42.8654 18.4932 43.1832C18.9046 43.3838 19.6034 43.6962 20.4945 43.9343C20.9317 44.0511 21.7016 44.2286 22.6736 44.2753C23.4716 44.3137 25.5156 44.3319 27.7666 43.1793L18.6507 25.3775ZM27.5548 25.3146C27.4887 25.2759 27.5479 25.3103 27.4221 25.2365C27.3519 25.1953 27.2434 25.1319 27.117 25.0607C26.8695 24.9213 26.4735 24.7061 25.983 24.4864C25.0246 24.0569 23.3508 23.4456 21.2029 23.4456V43.4456C19.5429 43.4456 18.3299 42.9731 17.8051 42.738C17.5315 42.6154 17.3455 42.5112 17.3014 42.4864C17.2766 42.4724 17.268 42.4671 17.296 42.4836C17.3107 42.4922 17.3251 42.5007 17.3535 42.5174C17.3779 42.5318 17.4141 42.5532 17.453 42.5759L27.5548 25.3146ZM21.2029 23.4456C19.0551 23.4456 17.3812 24.0569 16.4228 24.4864C15.9324 24.7061 15.5363 24.9213 15.2889 25.0607C15.1625 25.1319 15.054 25.1953 14.9837 25.2365C14.858 25.3103 14.9172 25.2759 14.851 25.3146L24.9528 42.5759C24.9918 42.5532 25.0279 42.5318 25.0524 42.5174C25.0807 42.5007 25.0951 42.4922 25.1098 42.4836C25.1378 42.4671 25.1293 42.4724 25.1045 42.4864C25.0603 42.5112 24.8743 42.6154 24.6007 42.738C24.076 42.9731 22.8629 43.4456 21.2029 43.4456V23.4456ZM15.344 25.0444C15.1791 25.1289 15.01 25.2204 14.9799 25.2366C14.9031 25.2779 14.9165 25.2703 14.951 25.2526C14.9581 25.249 15.1695 25.1389 15.4812 25.0092C15.6358 24.9449 15.9647 24.8126 16.4026 24.6825C16.6283 24.6155 16.9609 24.5256 17.3714 24.4483C17.758 24.3756 18.3981 24.2784 19.1972 24.2784V44.2784C20.0099 44.2784 20.6657 44.1794 21.0699 44.1034C21.4979 44.0229 21.85 43.9281 22.0969 43.8548C22.5771 43.7121 22.9551 43.5616 23.164 43.4747C23.5841 43.2999 23.9242 43.1274 24.0668 43.0543C24.2368 42.9673 24.3925 42.8833 24.4512 42.8518C24.5567 42.795 24.5164 42.8172 24.4598 42.8461L15.344 25.0444ZM23.7551 25.3775C25.4874 26.2646 26.4955 27.4304 26.8292 27.8299C27.2674 28.3546 27.5516 28.8091 27.6882 29.0374C27.9631 29.4967 28.1202 29.8544 28.1477 29.9164C28.2011 30.0367 28.2632 30.1977 28.1325 29.8631L9.50301 37.1392C9.50969 37.1563 9.51486 37.1697 9.53569 37.2235C9.5525 37.2669 9.57762 37.3317 9.60595 37.4034C9.65818 37.5358 9.75072 37.7671 9.86729 38.0297C9.96256 38.2444 10.1874 38.7408 10.5267 39.3077C10.6955 39.5898 11.011 40.0903 11.4793 40.651C11.843 41.0865 12.88 42.2783 14.6393 43.1793L23.7551 25.3775ZM28.2081 30.0628C27.7288 28.7539 26.6153 26.2601 23.963 24.3198L12.1547 40.4618C10.2613 39.0767 9.58149 37.3601 9.42746 36.9395L28.2081 30.0628ZM23.963 24.3198C21.1399 22.2546 18.0545 22.0852 17.8885 22.0663L15.6272 41.938C15.9494 41.9747 15.5167 41.941 14.9686 41.8007C14.2786 41.624 13.234 41.2513 12.1547 40.4618L23.963 24.3198ZM18.7645 22.2056C18.6415 22.1804 18.5352 22.1604 18.4728 22.1489C18.4244 22.1399 18.3384 22.1242 18.3344 22.1235C18.2621 22.1102 18.341 22.1237 18.4635 22.1509C18.5489 22.17 18.949 22.2583 19.4717 22.4468C19.7424 22.5444 20.199 22.723 20.7394 23.0138C21.2328 23.2795 22.158 23.8295 23.0996 24.7939L8.7898 38.7663C9.75854 39.7584 10.721 40.3345 11.26 40.6246C11.8459 40.94 12.3563 41.1416 12.6871 41.2609C13.3301 41.4928 13.8758 41.6192 14.1171 41.673C14.3954 41.7349 14.6404 41.7796 14.729 41.7958C14.8937 41.826 14.8164 41.8121 14.7512 41.7988L18.7645 22.2056ZM24.931 27.3929C25.56 28.6813 25.7493 29.7908 25.8121 30.1978C25.893 30.7213 25.9126 31.1389 25.9189 31.3672C25.9315 31.8246 25.9049 32.1589 25.8953 32.2722C25.8739 32.5248 25.8446 32.7051 25.8135 32.864L6.18432 29.0307C6.09908 29.4672 6.01557 30.0083 5.96702 30.5802C5.94385 30.8531 5.91051 31.3366 5.92648 31.9171C5.92795 31.9707 5.90076 34.0008 6.95847 36.1673L24.931 27.3929ZM25.7137 33.3188C25.9939 32.171 26.4213 29.8649 25.7679 27.188L6.33839 31.9308C6.10267 30.9652 6.09552 30.1724 6.1238 29.6799C6.15271 29.1767 6.22984 28.7985 6.28418 28.5759L25.7137 33.3188ZM25.7679 27.188C25.1689 24.734 23.8848 23.1095 23.1791 22.3211C22.8371 21.939 22.5244 21.6394 22.4198 21.5388C22.2374 21.3635 22.3315 21.4534 22.3949 21.5184L8.08509 35.4908C8.21933 35.6283 8.33644 35.7425 8.41256 35.8161C8.45105 35.8533 8.48591 35.8868 8.50893 35.9088C8.53684 35.9355 8.54624 35.9445 8.55829 35.9561C8.61964 36.0151 8.46959 35.8752 8.27664 35.6596C7.86916 35.2043 6.82899 33.9406 6.33839 31.9308L25.7679 27.188ZM22.3949 21.5184C22.2998 21.421 22.2168 21.3389 22.168 21.2909C22.1424 21.2657 22.1187 21.2425 22.1033 21.2274C22.085 21.2095 22.0768 21.2015 22.0685 21.1933C22.0181 21.1439 22.1166 21.2382 22.2507 21.3841C22.3494 21.4916 22.7497 21.927 23.1738 22.5893C23.396 22.9364 23.7336 23.5127 24.0327 24.2819C24.3246 25.0327 24.6979 26.268 24.6979 27.8384H4.69793C4.69793 29.4504 5.08146 30.7307 5.392 31.5294C5.70973 32.3466 6.07437 32.9737 6.33048 33.3737C6.82232 34.1419 7.31746 34.6917 7.52462 34.9172C7.76715 35.1811 7.98761 35.3968 8.05918 35.4671C8.19848 35.6038 8.12932 35.5361 8.08509 35.4908L22.3949 21.5184ZM24.6979 27.8384C24.6979 29.4087 24.3246 30.644 24.0327 31.3948C23.7336 32.164 23.396 32.7403 23.1738 33.0874C22.7497 33.7498 22.3494 34.1851 22.2507 34.2926C22.1166 34.4385 22.0181 34.5328 22.0685 34.4834C22.0768 34.4752 22.085 34.4672 22.1033 34.4493C22.1187 34.4342 22.1424 34.411 22.168 34.3859C22.2168 34.3378 22.2998 34.2558 22.3949 34.1584L8.08509 20.1859C8.12932 20.1406 8.19848 20.0729 8.05918 20.2096C7.98761 20.2799 7.76715 20.4956 7.52462 20.7596C7.31746 20.985 6.82232 21.5349 6.33048 22.303C6.07437 22.703 5.70973 23.3301 5.392 24.1473C5.08146 24.946 4.69793 26.2263 4.69793 27.8384H24.6979ZM22.3949 34.1584C22.3908 34.1626 22.3953 34.1579 22.4326 34.1206C22.4578 34.0954 22.5296 34.0238 22.5985 33.954C22.7392 33.8115 23.0094 33.5345 23.3105 33.1821C23.9527 32.4305 24.8298 31.2315 25.4434 29.5557L6.66283 22.679C7.11382 21.4473 7.74705 20.6091 8.10458 20.1906C8.26339 20.0048 8.38117 19.8874 8.36435 19.9045C8.35447 19.9145 8.34619 19.9227 8.29075 19.9782C8.24737 20.0216 8.17056 20.0984 8.08509 20.1859L22.3949 34.1584ZM25.4434 29.5557C26.8066 25.8329 25.7164 22.3692 25.7137 22.358L6.28418 27.1008C6.33769 27.32 6.21699 26.89 6.16458 26.2817C6.10785 25.6233 6.07791 24.2764 6.66283 22.679L25.4434 29.5557ZM25.9989 24.7294C25.9989 24.2331 25.9622 23.8378 25.9475 23.687C25.9298 23.5053 25.9105 23.3529 25.9042 23.304C25.8792 23.1063 25.9019 23.278 25.9153 23.4218C25.9251 23.5275 25.9881 24.1566 25.9173 24.9899C25.8806 25.4226 25.7865 26.1937 25.4896 27.1192C25.2026 28.0134 24.5697 29.5438 23.1538 30.9939L8.84401 17.0214C7.40102 18.4993 6.74778 20.0679 6.44602 21.0083C6.13424 21.9799 6.03087 22.8052 5.98904 23.2978C5.90813 24.2508 5.97784 25.0221 6.00123 25.2736C6.02815 25.5631 6.07125 25.8841 6.06313 25.82C6.06312 25.8199 6.06299 25.8189 6.06277 25.8171C6.06254 25.8153 6.06219 25.8125 6.06175 25.8089C6.06089 25.8019 6.05947 25.7903 6.0577 25.7752C6.05442 25.7472 6.04829 25.6935 6.04145 25.6232C6.03229 25.529 5.99893 25.1841 5.99893 24.7294H25.9989ZM24.9852 28.3948C23.8361 30.7484 22.1061 31.9558 21.4464 32.38C20.6487 32.8928 19.9584 33.1706 19.6345 33.2925C18.9785 33.5395 18.4676 33.6435 18.4109 33.6557C18.2843 33.6827 18.2 33.6962 18.2935 33.6799C18.2971 33.6793 18.5669 33.6338 18.8187 33.5822L14.8054 13.989C14.9216 13.9652 15.0289 13.9474 14.863 13.9763C14.7872 13.9895 14.5267 14.0342 14.2375 14.0959C14.0181 14.1428 13.3581 14.285 12.587 14.5753C12.2055 14.719 11.466 15.0197 10.6303 15.557C9.93238 16.0057 8.17529 17.2391 7.01268 19.6205L24.9852 28.3948ZM18.0819 33.7046C18.1308 33.6984 18.9899 33.604 19.8925 33.3799C20.8779 33.1352 22.4328 32.627 24.0173 31.4679L12.2089 15.326C13.4139 14.4445 14.5351 14.1028 15.0733 13.9692C15.5287 13.8561 15.927 13.8173 15.5422 13.8665L18.0819 33.7046ZM24.0173 31.4679C25.7328 30.2129 26.6928 28.7635 27.1555 27.9829C27.3816 27.6016 27.5537 27.2645 27.6111 27.1527C27.7095 26.9611 27.6577 27.064 27.6046 27.159L10.1393 17.4142C9.97788 17.7035 9.82438 18.0077 9.81942 18.0173C9.77349 18.1068 9.84061 17.9709 9.95147 17.7839C10.1838 17.392 10.8728 16.3034 12.2089 15.326L24.0173 31.4679ZM28.6866 24.2032C28.5522 24.8916 28.335 25.5585 28.0073 26.2297C27.8426 26.5669 27.5069 27.2021 26.932 27.9188C26.5127 28.4415 25.0914 30.1379 22.4822 31.0286L16.0207 12.1012C13.3302 13.0196 11.8275 14.7854 11.3303 15.4053C10.6775 16.2192 10.2672 16.9792 10.0348 17.4553C9.57159 18.4041 9.24599 19.4041 9.05737 20.37L28.6866 24.2032ZM23.8093 30.4658C21.5855 31.6045 19.5787 31.5811 18.8259 31.5449C17.899 31.5003 17.182 31.3324 16.8033 31.2312C16.029 31.0244 15.4691 30.7675 15.2001 30.6363C14.8331 30.4573 13.8467 29.955 12.8012 28.8842L27.1111 14.9118C25.9029 13.6745 24.6184 12.9778 23.9669 12.6601C23.5555 12.4595 22.8567 12.147 21.9656 11.909C21.5283 11.7921 20.7584 11.6147 19.7864 11.568C18.9885 11.5296 16.9445 11.5114 14.6935 12.664L23.8093 30.4658ZM14.9052 30.5287C15.3752 30.8037 17.8526 32.3421 21.2571 32.3421V12.3421C22.5488 12.3421 23.554 12.6387 24.1512 12.8681C24.7071 13.0816 25.0636 13.3004 25.007 13.2673L14.9052 30.5287ZM21.2571 32.3421C23.405 32.3421 25.0789 31.7308 26.0373 31.3014C26.5277 31.0816 26.9237 30.8664 27.1712 30.7271C27.2976 30.6558 27.4061 30.5925 27.4764 30.5512C27.6021 30.4774 27.5429 30.5119 27.609 30.4731L17.5072 13.2118C17.4683 13.2346 17.4321 13.2559 17.4077 13.2703C17.3793 13.287 17.3649 13.2955 17.3503 13.3042C17.3222 13.3206 17.3308 13.3154 17.3556 13.3014C17.3997 13.2765 17.5857 13.1724 17.8593 13.0498C18.3841 12.8147 19.5972 12.3421 21.2571 12.3421V32.3421ZM27.1161 30.7433C27.281 30.6589 27.4501 30.5673 27.4801 30.5512C27.557 30.5099 27.5435 30.5175 27.5091 30.5352C27.5019 30.5388 27.2906 30.6489 26.9789 30.7786C26.8243 30.8429 26.4954 30.9752 26.0574 31.1053C25.8317 31.1723 25.4991 31.2622 25.0887 31.3394C24.7021 31.4122 24.062 31.5094 23.2629 31.5094V11.5094C22.4502 11.5094 21.7944 11.6083 21.3902 11.6844C20.9622 11.7649 20.6101 11.8597 20.3632 11.933C19.8829 12.0756 19.5049 12.2262 19.2961 12.313C18.876 12.4878 18.5359 12.6604 18.3932 12.7334C18.2233 12.8205 18.0675 12.9044 18.0088 12.936C17.9033 12.9927 17.9437 12.9706 18.0002 12.9416L27.1161 30.7433ZM18.7049 30.4102C17.3884 29.7361 16.5511 28.9294 16.2446 28.6235C15.8526 28.2323 15.5777 27.8899 15.427 27.6934C15.1243 27.2988 14.9326 26.9805 14.8514 26.8419C14.6878 26.5627 14.5332 26.2569 14.3818 25.8691L33.0113 18.5931C32.7514 17.9277 32.4342 17.2888 32.108 16.732C31.9455 16.4546 31.6725 16.0114 31.2952 15.5196C31.2467 15.4565 30.0393 13.7446 27.8208 12.6085L18.7049 30.4102ZM14.3062 25.6694C14.7855 26.9784 15.899 29.4722 18.5512 31.4124L30.3596 15.2705C32.253 16.6555 32.9328 18.3721 33.0868 18.7928L14.3062 25.6694ZM18.5512 31.4124C21.3743 33.4776 24.4598 33.647 24.6258 33.6659L26.8871 13.7942C26.5649 13.7575 26.9975 13.7912 27.5456 13.9315C28.2357 14.1082 29.2803 14.4809 30.3596 15.2705L18.5512 31.4124ZM23.7498 33.5267C23.8728 33.5519 23.979 33.5718 24.0415 33.5834C24.0899 33.5924 24.1759 33.608 24.1799 33.6088C24.2522 33.622 24.1732 33.6085 24.0508 33.5813C23.9654 33.5623 23.5653 33.4739 23.0426 33.2854C22.7719 33.1878 22.3153 33.0093 21.7749 32.7184C21.2814 32.4528 20.3563 31.9027 19.4146 30.9383L33.7245 16.9659C32.7557 15.9738 31.7933 15.3977 31.2543 15.1076C30.6684 14.7922 30.158 14.5907 29.8272 14.4714C29.1842 14.2395 28.6384 14.113 28.3972 14.0593C28.1189 13.9973 27.8739 13.9526 27.7853 13.9364C27.6206 13.9062 27.6979 13.9201 27.7631 13.9335L23.7498 33.5267ZM17.5833 28.3393C16.9543 27.0509 16.765 25.9414 16.7021 25.5344C16.6213 25.0109 16.6016 24.5934 16.5954 24.365C16.5828 23.9077 16.6093 23.5734 16.619 23.4601C16.6404 23.2075 16.6697 23.0272 16.7007 22.8683L36.33 26.7015C36.4152 26.265 36.4987 25.7239 36.5473 25.1521C36.5704 24.8791 36.6038 24.3956 36.5878 23.8151C36.5863 23.7615 36.6135 21.7315 35.5558 19.565L17.5833 28.3393ZM16.8006 22.4135C16.5204 23.5613 16.093 25.8674 16.7464 28.5443L36.1759 23.8014C36.4116 24.767 36.4188 25.5599 36.3905 26.0523C36.3616 26.5555 36.2844 26.9337 36.2301 27.1563L16.8006 22.4135ZM16.7464 28.5443C17.3454 30.9982 18.6295 32.6228 19.3352 33.4111C19.6772 33.7933 19.9898 34.0928 20.0945 34.1934C20.2768 34.3687 20.1827 34.2788 20.1194 34.2139L34.4292 20.2415C34.295 20.104 34.1778 19.9897 34.1017 19.9161C34.0632 19.8789 34.0284 19.8455 34.0054 19.8234C33.9774 19.7967 33.968 19.7877 33.956 19.7761C33.8946 19.7171 34.0447 19.8571 34.2376 20.0726C34.6451 20.5279 35.6853 21.7916 36.1759 23.8014L16.7464 28.5443ZM20.1194 34.2139C20.2145 34.3113 20.2974 34.3933 20.3463 34.4414C20.3719 34.4665 20.3956 34.4897 20.411 34.5049C20.4293 34.5227 20.4374 34.5307 20.4458 34.5389C20.4962 34.5884 20.3977 34.494 20.2636 34.3481C20.1648 34.2407 19.7646 33.8053 19.3405 33.1429C19.1183 32.7959 18.7807 32.2196 18.4816 31.4503C18.1897 30.6995 17.8164 29.4643 17.8164 27.8939H37.8164C37.8164 26.2819 37.4328 25.0015 37.1223 24.2028C36.8046 23.3856 36.4399 22.7586 36.1838 22.3586C35.692 21.5904 35.1968 21.0405 34.9897 20.8151C34.7471 20.5512 34.5267 20.3354 34.4551 20.2652C34.3158 20.1284 34.385 20.1962 34.4292 20.2415L20.1194 34.2139ZM17.8164 27.8939C17.8164 26.1035 18.3015 24.7449 18.5984 24.0473C18.9193 23.2931 19.2696 22.7374 19.4865 22.4187C19.9113 21.7945 20.304 21.3847 20.4446 21.2408C20.7578 20.9201 20.9999 20.7284 21.1285 20.6296L33.3116 36.4906C33.6571 36.2252 34.1974 35.7837 34.7544 35.2132C35.017 34.9443 35.5182 34.4097 36.0209 33.6709C36.2403 33.3486 37.8164 31.1424 37.8164 27.8939H17.8164Z" fill="#FF3100" mask="url(#path-4-inside-2)"/>
<line x1="6" y1="7" x2="16" y2="7" stroke="#FF3100" stroke-width="2" stroke-linecap="round"/>
<line x1="6" y1="12" x2="20" y2="12" stroke="#FF3100" stroke-width="2" stroke-linecap="round"/>
<line x1="6" y1="17" x2="26" y2="17" stroke="#FF3100" stroke-width="2" stroke-linecap="round"/>
</svg>
