<svg width="48" height="55" viewBox="0 0 48 55" fill="none" xmlns="http://www.w3.org/2000/svg">
<path fill-rule="evenodd" clip-rule="evenodd" d="M11.9576 23.3052C11.5923 22.934 10.9838 22.9257 10.5985 23.311L2.28083 31.6287C1.90975 31.9938 1.90127 32.602 2.28619 32.9873C2.28632 32.9874 2.28606 32.9872 2.28619 32.9873L10.6292 41.3054C10.9944 41.6766 11.6029 41.685 11.9882 41.2997L20.2968 32.9911C20.6729 32.6062 20.664 31.9995 20.2867 31.6343L20.2809 31.6287L11.9576 23.3052ZM13.3801 21.8994C12.2247 20.7285 10.3432 20.7379 9.18432 21.8968L0.874997 30.2061C-0.295902 31.3615 -0.286547 33.243 0.872363 34.4019L9.20728 42.7119C10.3627 43.8821 12.2437 43.8726 13.4024 42.7139L21.7144 34.4019L21.7201 34.3961C22.8599 33.2377 22.8701 31.3585 21.6843 30.2036L13.3801 21.8994Z" fill="black"/>
<path d="M33.6034 46.1084L25.2915 54.4203C24.5189 55.193 23.2727 55.193 22.5125 54.4203L14.2006 46.1084C13.4279 45.3358 13.4279 44.0896 14.2006 43.3294L22.5125 35.0175C23.2851 34.2448 24.5313 34.2448 25.2915 35.0175L33.6034 43.3294C34.3636 44.0896 34.3636 45.3358 33.6034 46.1084Z" fill="#FF3000"/>
<path fill-rule="evenodd" clip-rule="evenodd" d="M37.3247 23.3052C36.9595 22.934 36.351 22.9257 35.9657 23.311L27.648 31.6287C27.2768 31.9939 27.2685 32.6024 27.6538 32.9877L35.9715 41.3054C36.3367 41.6766 36.9452 41.685 37.3305 41.2997L45.6391 32.9911C46.0171 32.6043 46.0082 31.9887 45.6424 31.623L37.3247 23.3052ZM38.7473 21.8994C37.5919 20.7285 35.7104 20.7379 34.5515 21.8968L26.2422 30.2061C25.0713 31.3615 25.0806 33.243 26.2396 34.4019L34.5489 42.7112C35.7042 43.8821 37.5858 43.8728 38.7447 42.7139L47.0566 34.4019L47.0624 34.3961C48.2023 33.2375 48.2105 31.3626 47.0566 30.2087L38.7473 21.8994Z" fill="black"/>
<path fill-rule="evenodd" clip-rule="evenodd" d="M29.8169 2.28658C29.8169 2.28665 29.817 2.2865 29.8169 2.28658L15.2808 16.8476C14.9096 17.2128 14.9013 17.8213 15.2866 18.2066L23.6043 26.5243C23.9695 26.8955 24.578 26.9039 24.9633 26.5186L39.5118 11.97C39.882 11.6058 39.8905 10.9892 39.4993 10.6042L39.4936 10.5986L31.1759 2.28083C30.8108 1.9097 30.2022 1.90149 29.8169 2.28658ZM32.5985 0.875003C31.4431 -0.295902 29.5616 -0.286549 28.4027 0.872363L13.8746 15.4254C12.7041 16.5808 12.7136 18.462 13.8724 19.6208L22.1817 27.9301C23.337 29.101 25.2186 29.0917 26.3775 27.9328L40.9177 13.3926C42.0885 12.2373 42.0801 10.3413 40.9053 9.18182L32.5985 0.875003Z" fill="black"/>
</svg>
