<svg width="327" height="460" viewBox="0 0 327 460" fill="none" xmlns="http://www.w3.org/2000/svg">
<path d="M185.027 17.0528C136.053 -10.309 92.0266 2.55279 73.0266 17.0528C23.5267 51.5528 22.637 111.665 15.0266 153.553C2.49982 222.5 -8.97357 267.818 10.5266 311.553C27.892 350.5 73.0266 357.053 185.027 357.053C274.047 357.053 274.031 253.953 274.027 228.54L274.027 228.053C274.027 203.5 262.5 60.338 185.027 17.0528Z" fill="#25D800" fill-opacity="0.4"/>
<path d="M21 24.5C21.8 41.3 22.5 67.5 32 72.5C33.5 65 43.5 46.5 50 39L21 24.5Z" fill="#25D800" fill-opacity="0.4"/>
<path d="M55.5 40.25L19.5 21C20.4231 36.3214 24.089 68.7714 31.3681 76" stroke="#1F9107" stroke-width="5" stroke-linecap="round" stroke-linejoin="round"/>
<path d="M141.5 39.5426C149.592 35.3773 169.499 25.8372 184.389 21C187.491 33.2274 191.834 60.7457 184.389 73" stroke="#1F9107" stroke-width="5" stroke-linecap="round" stroke-linejoin="round"/>
<path d="M8.5 295V344.211C8.5 358.579 40.9 363.752 48.5 344.211V295" stroke="#1F9107" stroke-width="4" stroke-linecap="round" stroke-linejoin="round"/>
<path d="M96.5 295V344.211C96.5 358.579 128.9 363.752 136.5 344.211V295" stroke="#1F9107" stroke-width="4" stroke-linecap="round" stroke-linejoin="round"/>
<path d="M135 295L166.5 320L145.5 331C130 346.5 145.5 356 145.5 356C162.602 356 203.667 357.833 222.5 356" stroke="#1F9107" stroke-width="4" stroke-linecap="round" stroke-linejoin="round"/>
<path d="M326.5 338.5C323.7 302.1 269.5 272 269.5 272C269.5 282.5 262 305 258 312C258 312 287.5 319.276 287.5 350.5C287.5 381.724 250.5 425.333 233.5 431.5C234 446 241.9 470.8 269.5 454C304 433 330 384 326.5 338.5Z" fill="#25D800" fill-opacity="0.4"/>
<ellipse cx="53" cy="119" rx="7.5" ry="8" fill="#0D0606"/>
<ellipse cx="107" cy="119" rx="7.5" ry="8" fill="#0D0606"/>
<ellipse cx="76.5" cy="138" rx="12" ry="9" fill="black"/>
<path d="M86.5 11.5C82 14.6667 72.6 26.3 71 47.5" stroke="#1F9107" stroke-opacity="0.42" stroke-width="7" stroke-linecap="round" stroke-linejoin="round"/>
<path d="M109 4L90 51.5" stroke="#1F9107" stroke-opacity="0.42" stroke-width="7" stroke-linecap="round" stroke-linejoin="round"/>
<path d="M126 4C125.5 12.6667 122.6 33.1 115 45.5" stroke="#1F9107" stroke-opacity="0.42" stroke-width="7" stroke-linecap="round" stroke-linejoin="round"/>
<path d="M107 140.5L143.5 123.5" stroke="#1F9107" stroke-width="5" stroke-linecap="round" stroke-linejoin="round"/>
<path d="M109 152H143.5" stroke="#1F9107" stroke-width="5" stroke-linecap="round" stroke-linejoin="round"/>
<path d="M39 142.5L2.5 131" stroke="#1F9107" stroke-width="5" stroke-linecap="round" stroke-linejoin="round"/>
<path d="M35 156H4.5" stroke="#1F9107" stroke-width="5" stroke-linecap="round" stroke-linejoin="round"/>
<path d="M8.5002 345V302C15.1187 337.5 51.5 345 46.5002 345C29.7002 364.2 14.1669 353 8.5002 345Z" fill="#25D800" fill-opacity="0.4"/>
</svg>
