<svg width="848" height="460" viewBox="0 0 848 460" fill="none" xmlns="http://www.w3.org/2000/svg">
<path d="M320 378C320 394.912 304.551 409 285 409C265.449 409 250 394.912 250 378C250 361.088 265.449 347 285 347C304.551 347 320 361.088 320 378Z" stroke="#1F9107" stroke-width="4"/>
<path d="M288.5 349L254 390" stroke="#1F9107" stroke-width="5" stroke-linecap="round" stroke-linejoin="round"/>
<path d="M310.5 356.5L266.5 405H66.5" stroke="#1F9107" stroke-width="5" stroke-linecap="round" stroke-linejoin="round"/>
<path d="M1 269.5C2.2 294.7 42 345.5 42 345.5L99.5 364V319C112.667 295 135.9 245.4 123.5 239C111.1 232.6 102.333 244.667 99.5 251.5V212.5C75.5 179.3 51.1667 198.667 42 212.5V269.5C15.5 248 1 258 1 269.5Z" fill="#1F9107" stroke="#1F9107" stroke-linecap="round" stroke-linejoin="round"/>
<path d="M119 340L102.5 407.5H37.5L21.5 340H119Z" fill="#C4C4C4" stroke="#C4C4C4" stroke-linecap="round" stroke-linejoin="round"/>
<path d="M54.5 214V225.5" stroke="white" stroke-width="3" stroke-linecap="round" stroke-linejoin="round"/>
<path d="M26.5 297V308.5" stroke="white" stroke-width="3" stroke-linecap="round" stroke-linejoin="round"/>
<path d="M82.5 215V226.5" stroke="white" stroke-width="3" stroke-linecap="round" stroke-linejoin="round"/>
<path d="M88.5 243V254.5" stroke="white" stroke-width="3" stroke-linecap="round" stroke-linejoin="round"/>
<path d="M57.5 248V259.5" stroke="white" stroke-width="3" stroke-linecap="round" stroke-linejoin="round"/>
<path d="M74.5 252V263.5" stroke="white" stroke-width="3" stroke-linecap="round" stroke-linejoin="round"/>
<path d="M106.5 248V259.5" stroke="white" stroke-width="3" stroke-linecap="round" stroke-linejoin="round"/>
<path d="M94.5 270V281.5" stroke="white" stroke-width="3" stroke-linecap="round" stroke-linejoin="round"/>
<path d="M49.5 273V284.5" stroke="white" stroke-width="3" stroke-linecap="round" stroke-linejoin="round"/>
<path d="M27.5 269V280.5" stroke="white" stroke-width="3" stroke-linecap="round" stroke-linejoin="round"/>
<path d="M64.5 283V294.5" stroke="white" stroke-width="3" stroke-linecap="round" stroke-linejoin="round"/>
<path d="M81.5 291V302.5" stroke="white" stroke-width="3" stroke-linecap="round" stroke-linejoin="round"/>
<path d="M54.5 301V312.5" stroke="white" stroke-width="3" stroke-linecap="round" stroke-linejoin="round"/>
<path d="M70.5 313V324.5" stroke="white" stroke-width="3" stroke-linecap="round" stroke-linejoin="round"/>
<path d="M706.027 17.0528C657.053 -10.309 613.027 2.55279 594.027 17.0528C544.527 51.5528 543.637 111.665 536.027 153.553C523.5 222.5 512.026 267.818 531.527 311.553C548.892 350.5 594.027 357.053 706.027 357.053C795.047 357.053 795.031 253.953 795.027 228.54L795.027 228.053C795.027 203.5 783.5 60.338 706.027 17.0528Z" fill="#25D800" fill-opacity="0.4"/>
<path d="M292 272H478L503.173 365H582.5L514 405H328L292 272Z" fill="#C4C4C4"/>
<path d="M542 24.5C542.8 41.3 543.5 67.5 553 72.5C554.5 65 564.5 46.5 571 39L542 24.5Z" fill="#25D800" fill-opacity="0.4"/>
<path d="M576.5 40.25L540.5 21C541.423 36.3214 545.089 68.7714 552.368 76" stroke="#1F9107" stroke-width="5" stroke-linecap="round" stroke-linejoin="round"/>
<path d="M662.5 39.5426C670.592 35.3773 690.499 25.8372 705.389 21C708.491 33.2274 712.834 60.7457 705.389 73" stroke="#1F9107" stroke-width="5" stroke-linecap="round" stroke-linejoin="round"/>
<path d="M529.5 295V344.211C529.5 358.579 561.9 363.752 569.5 344.211V295" stroke="#1F9107" stroke-width="4" stroke-linecap="round" stroke-linejoin="round"/>
<path d="M617.5 295V344.211C617.5 358.579 649.9 363.752 657.5 344.211V295" stroke="#1F9107" stroke-width="4" stroke-linecap="round" stroke-linejoin="round"/>
<path d="M656 295L687.5 320L666.5 331C651 346.5 666.5 356 666.5 356C683.602 356 724.667 357.833 743.5 356" stroke="#1F9107" stroke-width="4" stroke-linecap="round" stroke-linejoin="round"/>
<path d="M847.5 338.5C844.7 302.1 790.5 272 790.5 272C790.5 282.5 783 305 779 312C779 312 808.5 319.276 808.5 350.5C808.5 381.724 771.5 425.333 754.5 431.5C755 446 762.9 470.8 790.5 454C825 433 851 384 847.5 338.5Z" fill="#25D800" fill-opacity="0.4"/>
<ellipse cx="574" cy="119" rx="7.5" ry="8" fill="#0D0606"/>
<ellipse cx="628" cy="119" rx="7.5" ry="8" fill="#0D0606"/>
<ellipse cx="597.5" cy="138" rx="12" ry="9" fill="black"/>
<path d="M607.5 11.5C603 14.6667 593.6 26.3 592 47.5" stroke="#1F9107" stroke-opacity="0.42" stroke-width="7" stroke-linecap="round" stroke-linejoin="round"/>
<path d="M630 4L611 51.5" stroke="#1F9107" stroke-opacity="0.42" stroke-width="7" stroke-linecap="round" stroke-linejoin="round"/>
<path d="M647 4C646.5 12.6667 643.6 33.1 636 45.5" stroke="#1F9107" stroke-opacity="0.42" stroke-width="7" stroke-linecap="round" stroke-linejoin="round"/>
<path d="M628 140.5L664.5 123.5" stroke="#1F9107" stroke-width="5" stroke-linecap="round" stroke-linejoin="round"/>
<path d="M630 152H664.5" stroke="#1F9107" stroke-width="5" stroke-linecap="round" stroke-linejoin="round"/>
<path d="M560 142.5L523.5 131" stroke="#1F9107" stroke-width="5" stroke-linecap="round" stroke-linejoin="round"/>
<path d="M556 156H525.5" stroke="#1F9107" stroke-width="5" stroke-linecap="round" stroke-linejoin="round"/>
<path d="M529.5 345V302C536.119 337.5 572.5 345 567.5 345C550.7 364.2 535.167 353 529.5 345Z" fill="#25D800" fill-opacity="0.4"/>
<path d="M514 405L502.5 364.5H583L514 405Z" fill="#0D0606" fill-opacity="0.36"/>
</svg>
