<svg width="40" height="41" viewBox="0 0 40 41" fill="none" xmlns="http://www.w3.org/2000/svg">
<path d="M40 20.5C40 31.5457 31.0457 40.5 20 40.5C8.9543 40.5 0 31.5457 0 20.5C0 9.4543 8.9543 0.5 20 0.5C31.0457 0.5 40 9.4543 40 20.5Z" fill="#DFDFDF"/>
<path d="M22.3569 15.3227H24V12.6197C23.7165 12.5829 22.7416 12.5 21.6062 12.5C19.2371 12.5 17.6143 13.9075 17.6143 16.4943V18.875H15V21.8967H17.6143V29.5H20.8195V21.8975H23.3281L23.7263 18.8757H20.8188V16.7939C20.8195 15.9205 21.0685 15.3227 22.3569 15.3227Z" fill="#211105"/>
</svg>
